<svg width="2440" height="2440" viewBox="0 0 2440 2440" fill="none" xmlns="http://www.w3.org/2000/svg">
<g clip-path="url(#clip0_1_2)">
<circle cx="1220" cy="1220" r="1220" fill="#E0F0F1"/>
<path d="M1138.75 1321.56C1122.59 1321.56 1107.09 1327.98 1095.66 1339.41C1084.23 1350.84 1077.81 1366.34 1077.81 1382.5V1478.98L921.253 1322.58C919.368 1320.69 917.872 1318.45 916.853 1315.98C915.833 1313.52 915.31 1310.88 915.312 1308.21V1067.35C955.97 1052.98 990.238 1024.69 1012.06 987.494C1033.88 950.297 1041.85 906.584 1034.55 864.08C1027.26 821.577 1005.18 783.02 972.207 755.223C939.235 727.427 897.499 712.182 854.374 712.182C811.25 712.182 769.513 727.427 736.542 755.223C703.571 783.02 681.487 821.577 674.195 864.08C666.902 906.584 674.87 950.297 696.691 987.494C718.511 1024.69 752.779 1052.98 793.437 1067.35V1308.21C793.38 1326.89 797.031 1345.39 804.179 1362.65C811.327 1379.91 821.829 1395.58 835.078 1408.75L991.484 1565.31H894.999C878.838 1565.31 863.338 1571.73 851.91 1583.16C840.482 1594.59 834.062 1610.09 834.062 1626.25C834.062 1642.41 840.482 1657.91 851.91 1669.34C863.338 1680.77 878.838 1687.19 894.999 1687.19H1138.75C1154.91 1687.19 1170.41 1680.77 1181.84 1669.34C1193.27 1657.91 1199.69 1642.41 1199.69 1626.25V1382.5C1199.69 1366.34 1193.27 1350.84 1181.84 1339.41C1170.41 1327.98 1154.91 1321.56 1138.75 1321.56ZM854.374 834.063C866.427 834.063 878.208 837.636 888.23 844.332C898.251 851.028 906.061 860.545 910.673 871.68C915.286 882.815 916.492 895.068 914.141 906.888C911.79 918.709 905.986 929.567 897.464 938.089C888.942 946.612 878.083 952.415 866.263 954.767C854.442 957.118 842.19 955.911 831.055 951.299C819.92 946.687 810.403 938.876 803.707 928.855C797.011 918.834 793.437 907.052 793.437 895C793.437 878.838 799.857 863.339 811.285 851.911C822.713 840.483 838.213 834.063 854.374 834.063ZM1646.56 1372.65V1131.79C1646.62 1113.11 1642.97 1094.61 1635.82 1077.35C1628.67 1060.09 1618.17 1044.42 1604.92 1031.25L1448.52 874.688H1545C1561.16 874.688 1576.66 868.267 1588.09 856.839C1599.52 845.411 1605.94 829.912 1605.94 813.75C1605.94 797.588 1599.52 782.089 1588.09 770.661C1576.66 759.233 1561.16 752.813 1545 752.813H1301.25C1285.09 752.813 1269.59 759.233 1258.16 770.661C1246.73 782.089 1240.31 797.588 1240.31 813.75V1057.5C1240.31 1073.66 1246.73 1089.16 1258.16 1100.59C1269.59 1112.02 1285.09 1118.44 1301.25 1118.44C1317.41 1118.44 1332.91 1112.02 1344.34 1100.59C1355.77 1089.16 1362.19 1073.66 1362.19 1057.5V961.016L1518.75 1117.57C1520.63 1119.46 1522.13 1121.7 1523.15 1124.17C1524.17 1126.63 1524.69 1129.28 1524.69 1131.95V1372.8C1484.03 1387.18 1449.76 1415.46 1427.94 1452.66C1406.12 1489.86 1398.15 1533.57 1405.44 1576.07C1412.74 1618.58 1434.82 1657.13 1467.79 1684.93C1500.76 1712.73 1542.5 1727.97 1585.62 1727.97C1628.75 1727.97 1670.49 1712.73 1703.46 1684.93C1736.43 1657.13 1758.51 1618.58 1765.8 1576.07C1773.1 1533.57 1765.13 1489.86 1743.31 1452.66C1721.49 1415.46 1687.22 1387.18 1646.56 1372.8V1372.65ZM1585.62 1605.94C1573.57 1605.94 1561.79 1602.36 1551.77 1595.67C1541.75 1588.97 1533.94 1579.45 1529.33 1568.32C1524.71 1557.18 1523.51 1544.93 1525.86 1533.11C1528.21 1521.29 1534.01 1510.43 1542.54 1501.91C1551.06 1493.39 1561.92 1487.58 1573.74 1485.23C1585.56 1482.88 1597.81 1484.09 1608.94 1488.7C1620.08 1493.31 1629.6 1501.12 1636.29 1511.15C1642.99 1521.17 1646.56 1532.95 1646.56 1545C1646.56 1561.16 1640.14 1576.66 1628.71 1588.09C1617.29 1599.52 1601.79 1605.94 1585.62 1605.94Z" fill="#24292F"/>
</g>
<defs>
<clipPath id="clip0_1_2">
<rect width="2440" height="2440" fill="white"/>
</clipPath>
</defs>
</svg>
